Coordinates
version=1
nRows=12
nColumns=34
inDegrees=yes

Units are S.I. units (second, meters, Newtons, ...)
If the header above contains a line with 'inDegrees', this indicates whether rotational values are in degrees (yes) or radians (no).

endheader
time	pelvis_tilt	pelvis_list	pelvis_rotation	pelvis_tx	pelvis_ty	pelvis_tz	hip_flexion_r	hip_adduction_r	hip_rotation_r	knee_angle_r	ankle_angle_r	subtalar_angle_r	mtp_angle_r	hip_flexion_l	hip_adduction_l	hip_rotation_l	knee_angle_l	ankle_angle_l	subtalar_angle_l	mtp_angle_l	lumbar_extension	lumbar_bending	lumbar_rotation	arm_flex_r	arm_add_r	arm_rot_r	elbow_flex_r	pro_sup_r	arm_flex_l	arm_add_l	arm_rot_l	elbow_flex_l	pro_sup_l
      1.61666670	     -2.12209828	     -0.16734379	     -0.71598282	     -0.05817698	      1.27026322	     -0.09503854	     -3.70569855	      1.81450911	      7.15670352	      0.00000000	      8.17848366	     -4.90220480	      0.00000000	     -2.63088461	     -0.34190392	      7.82911601	      0.00000000	      5.23748039	     -3.46724177	      0.00000000	     -1.06182599	      1.26575071	      0.44160793	     -0.17353554	     -3.68385264	      3.94488132	     22.63553561	     98.54046051	      2.89840058	     -5.03461410	     15.42022303	     22.45655605	     99.23930192
      1.63333330	     -2.11926305	     -0.15408926	     -0.71260225	     -0.05778801	      1.27180637	     -0.09348773	     -3.70809103	      1.81233496	      7.15816052	      0.00000000	      8.18185521	     -4.90385234	      0.00000000	     -2.62910153	     -0.34939504	      7.83389273	      0.00000000	      5.24105352	     -3.46984772	      0.00000000	     -1.06169582	      1.26782427	      0.43845910	     -0.17643949	     -3.68713487	      3.94405252	     22.63442083	     98.54147563	      2.89566590	     -5.03256050	     15.41881960	     22.45529932	     99.23962661
      1.65000000	     -2.12973820	     -0.14542495	     -0.71388980	     -0.05744166	      1.27123904	     -0.09394745	     -3.71708617	      1.80966070	      7.15869439	      0.00000000	      8.18460130	     -4.90594976	      0.00000000	     -2.64942395	     -0.35904208	      7.83843776	      0.00235243	      5.24390611	     -3.47271040	      0.00000000	     -1.05249872	      1.26708129	      0.43753135	     -0.17277198	     -3.68827330	      3.94327673	     22.63599510	     98.54263916	      2.89688255	     -5.03595075	     15.41616283	     22.45462760	     99.23982951
      1.66666670	     -2.03505375	     -0.14442389	     -0.74225211	     -0.05824647	      1.26646330	     -0.09375497	     -3.79722392	      1.82923632	      7.16947308	      0.00000000	      8.25771304	     -4.94802861	      0.00000000	     -2.76721820	     -0.36705863	      7.89582766	      0.00000000	      5.33807578	     -3.53556869	      0.00000000	     -0.85487519	      1.24891047	      0.42520841	     -0.09281991	     -3.73133523	      3.92943945	     22.67501539	     98.55721092	      2.95299507	     -5.10756379	     15.37327920	     22.46075256	     99.24093632
      1.68333330	     -2.02713328	     -0.13210880	     -0.73662217	     -0.05861844	      1.26563043	     -0.09382007	     -3.78035245	      1.83152906	      7.17119939	      0.00000000	      8.26184624	     -4.94995531	      0.00000000	     -2.78782204	     -0.37602551	      7.89854141	      0.00130330	      5.34324643	     -3.53957825	      0.00000000	     -0.84901490	      1.24863645	      0.42494267	     -0.09174374	     -3.73219256	      3.92912341	     22.67628888	     98.55810874	      2.95319005	     -5.11010962	     15.37106837	     22.46053570	     99.24101070
      1.70000000	     -1.97169099	     -0.13316536	     -0.73616530	     -0.05843602	      1.26857297	     -0.09414205	     -3.82223309	      1.84201466	      7.16939362	      0.00000000	      8.31546113	     -4.99077816	      0.00000000	     -2.85830918	     -0.38684750	      7.92914989	      0.00000000	      5.43073127	     -3.61567694	      0.00000000	     -0.67669505	      1.22870170	      0.41614176	     -0.02081009	     -3.75288670	      3.92210560	     22.72185145	     98.57061103	      3.02667529	     -5.16327630	     15.33083845	     22.48144074	     99.24050053
      1.71666670	     -1.96203331	     -0.12978267	     -0.73274191	     -0.05896166	      1.27003095	     -0.09435200	     -3.79118398	      1.84129405	      7.16978914	      0.00000000	      8.31807961	     -4.99253151	      0.00000000	     -2.87908385	     -0.38820615	      7.93141511	      0.00199836	      5.43378315	     -3.61951915	      0.00000000	     -0.67229413	      1.22872115	      0.41515373	     -0.02255134	     -3.75323447	      3.92208516	     22.72295681	     98.57142609	      3.02613608	     -5.16533619	     15.32882848	     22.48155047	     99.24053168
      1.73333330	     -1.95453585	     -0.12219630	     -0.73293478	     -0.05777605	      1.26521778	     -0.09323589	     -3.80187334	      1.86142639	      7.17086182	      0.00000000	      8.31874548	     -4.99312387	      0.00000000	     -2.87973035	     -0.37001452	      7.93796729	      0.00587014	      5.43525642	     -3.62125114	      0.00000000	     -0.66690182	      1.23065808	      0.41416827	     -0.01670930	     -3.75722366	      3.92150260	     22.72616312	     98.57219458	      3.03285519	     -5.16721202	     15.32617117	     22.48380821	     99.24046179
      1.75000000	     -1.95934805	     -0.11438114	     -0.73661909	     -0.05882000	      1.26984110	     -0.09348712	     -3.79581801	      1.86545460	      7.17147987	      0.00000000	      8.32248675	     -4.99560238	      0.00000000	     -2.88449877	     -0.37141697	      7.94402531	      0.00000000	      5.43967025	     -3.62540299	      0.00000000	     -0.65200487	      1.22948630	      0.41394972	     -0.01342584	     -3.76074746	      3.92100595	     22.73014027	     98.57302531	      3.03727543	     -5.17378029	     15.32282260	     22.48603665	     99.24031791
      1.76666670	     -1.95569599	     -0.11183886	     -0.74079420	     -0.05965109	      1.26826797	     -0.09365885	     -3.79339988	      1.86506237	      7.17120963	      0.00000000	      8.32362747	     -4.99690740	      0.00000000	     -2.89405378	     -0.37277535	      7.94873503	      0.00000000	      5.44101361	     -3.62757478	      0.00000000	     -0.64150113	      1.22833651	      0.41412139	     -0.00966434	     -3.76452291	      3.92046624	     22.73329172	     98.57355133	      3.04165355	     -5.18009820	     15.32015635	     22.48778817	     99.24015830
      1.78333330	     -1.94164910	     -0.09605928	     -0.87141082	     -0.05904999	      1.27085616	     -0.09283138	     -3.78998142	      1.86040253	      7.16149893	      0.00000000	      8.33796339	     -5.01971355	      0.00000000	     -2.93079730	     -0.37389517	      8.05653230	      0.00000000	      5.43911935	     -3.64696694	      0.00000000	     -0.48836688	      1.19858488	      0.42455698	      0.06554636	     -3.84378127	      3.90890287	     22.78933199	     98.58163501	      3.11143990	     -5.30139246	     15.27323176	     22.51479990	     99.23695593
      1.80000000	     -1.94177314	     -0.09711041	     -0.87284479	     -0.05846612	      1.26896874	     -0.09319817	     -3.79571236	      1.86702976	      7.16354836	      0.00000000	      8.33805425	     -5.02022488	      0.00000000	     -2.92086214	     -0.36361313	      8.06233504	      0.00000000	      5.44017674	     -3.65216691	      0.00000000	     -0.48864064	      1.19754615	      0.42900613	      0.06536827	     -3.84837068	      3.90858582	     22.79271426	     98.58266156	      3.10639865	     -5.31248923	     15.26898589	     22.51437860	     99.23674230
